PathFileType	4	(X/Y/Z)	10_1_8_p0_0-397.trc
DataRate	CameraRate	NumFrames	NumMarkers	Units	OrigDataRate	OrigDataStartFrame	OrigNumFrames
60.0	60.0	5	27	m	60.0	99	398
Frame#	Time	RHip			RKnee			RAnkle			RBigToe			RSmallToe			RHeel			LHip			LKnee			LAnkle			LBigToe			LSmallToe			LHeel			Neck			Head			Nose			RShoulder			RElbow			RWrist			RThumb			RIndex			RPinky			LShoulder			LElbow			LWrist			LThumb			LIndex			LPinky			
		X1	Y1	Z1	X2	Y2	Z2	X3	Y3	Z3	X4	Y4	Z4	X5	Y5	Z5	X6	Y6	Z6	X7	Y7	Z7	X8	Y8	Z8	X9	Y9	Z9	X10	Y10	Z10	X11	Y11	Z11	X12	Y12	Z12	X13	Y13	Z13	X14	Y14	Z14	X15	Y15	Z15	X16	Y16	Z16	X17	Y17	Z17	X18	Y18	Z18	X19	Y19	Z19	X20	Y20	Z20	X21	Y21	Z21	X22	Y22	Z22	X23	Y23	Z23	X24	Y24	Z24	X25	Y25	Z25	X26	Y26	Z26	X27	Y27	Z27	
99	1.65	0.3260953128506981	0.4754097018115711	0.9189287303016807	0.30990148658274974	0.6358508434960287	1.3876024506896327	0.32058416815156376	0.7807893740097847	1.8078836755834502	0.27002270968059916	0.5911263236581544	1.8477203296142164	0.32794178400457347	0.6145710256225068	1.8424723414167845	0.29504829940537486	0.9112279189593102	1.892148660847047	0.08947094392802102	0.49312022174647663	0.9256300610092385	0.08428769988427269	0.6146396661065734	1.376594683984298	0.09345000852638576	0.7836637530380852	1.7932059051480054	0.12002569190213766	0.6145437967012235	1.8449764694926503	0.05825683209067772	0.6368477749148019	1.8313459082690788	0.10430142934089884	0.9110144820093403	1.8599800320666349	0.20067524013769628	0.3823814266818359	0.307041907848668	0.1902953197921849	0.3502978677342656	0.08554620586224695	0.19763164798412358	0.296466753195316	0.20572785237491145	0.3367016792579474	0.3715049764643913	0.3872339729489111	0.49026735682044076	0.24041157033306468	0.42044575947593577	0.39045004596479516	0.17149446019631734	0.2466067758795568	0.28469716866318107	0.20758438112287472	0.17476969182278498	0.2718748149899652	0.18486087449202557	0.15717904598892982	0.3234194738192616	0.1279754852228498	0.1929796728193807	0.053788036031202385	0.4163982115251017	0.3987079166768553	0.024691727767800424	0.18031170804283306	0.556737075554559	0.005676445992985269	-0.03925257425933143	0.4747177885982482	-0.03595781259109484	-0.10884647338049995	0.416024803273072	-0.05068310395883614	-0.15323320191637885	0.4186682311413663	-0.021317123308416334	-0.19349196034536414	0.4439751771689604
100	1.6666666666666667	0.3256562835907696	0.47617284008337396	0.915335384413542	0.3098895320268662	0.6358796448843727	1.3876158153236782	0.32557555892186224	0.7644622740563682	1.8018901297714636	0.27265206177524676	0.6052615059252162	1.852828870637206	0.3284782188974895	0.6131953857924567	1.8462992238757312	0.29598966039735	0.8924279272964034	1.8853517132461362	0.08370872584658509	0.5067921348433801	0.9270291609711198	0.08645232634093855	0.628045262982183	1.3794459004535877	0.09931255538655963	0.7674514278668273	1.7872150914203704	0.11481526245129307	0.6137473660067928	1.840397862371973	0.05817901757497156	0.6372447091690437	1.8316189535994296	0.10491431429156943	0.9107398331542936	1.8500991825992457	0.20155075019197935	0.3803529015605746	0.31128246973382095	0.19951319744077362	0.3385743584406167	0.08459566597242363	0.20193303516079666	0.2978349922155138	0.20903782910112603	0.3441772161606857	0.3847479278297586	0.38582499986546315	0.4951895167729809	0.2291331300302047	0.43518236449834746	0.39766633040096594	0.1701386720217995	0.24663441443837683	0.2917999389580948	0.22667701264069542	0.16370643342012367	0.2866668547950071	0.19576346292017674	0.1550988591040982	0.3308912910621645	0.1525017956434312	0.18236080708482183	0.053925142955514475	0.4165447706877668	0.39854809402988095	0.02961291979017066	0.1693378917199464	0.5502414148449302	0.015923681778148423	-0.04815808334287279	0.4464703133045497	-0.039287375857562895	-0.10190869878047602	0.3812169818961184	-0.04634617387808273	-0.15268585380295457	0.38238872565666276	-0.021072444115250815	-0.20567968855331453	0.41591743211543925
101	1.6833333333333333	0.3212682402149558	0.4899923378009898	0.9207332025766412	0.3101604688165806	0.6346700878941668	1.3911866558573731	0.3205050636042109	0.7808174711460784	1.8078299171958632	0.269846430500986	0.5920539503987091	1.8480283544248142	0.327706510725134	0.6154061051554938	1.8426494825739144	0.2949638599537822	0.9117062017953442	1.8922872100103862	0.07954591816273265	0.5052778113799576	0.9271090210606393	0.08464612151288	0.6134737282160945	1.3805579444514682	0.0934372984988172	0.7832811463722597	1.7930061230842251	0.1153144249222168	0.6124513739313933	1.8448042404007698	0.05339803373952322	0.6347575187006476	1.8310731686045674	0.10252875157842023	0.8957474397049581	1.8451117560939236	0.20630230966683982	0.3705832260269536	0.31810838793931506	0.2103118515737139	0.32456430585695667	0.08649071259382275	0.21242840898566745	0.29817344426312414	0.1983039466575754	0.34848831688714405	0.38702100507036397	0.39284441116412594	0.49545782455467	0.23077546640954782	0.4457514723311945	0.4122366516107722	0.15829209634017768	0.2511129791529441	0.30295084096844266	0.20465457918885038	0.1697445242598806	0.30264323608776983	0.18303983918225483	0.1582515391549305	0.34645900469074914	0.16872813032865117	0.17475625187372593	0.0543208490563034	0.41555210298761175	0.39486743418175235	0.025438560834471616	0.16845325509485912	0.5395517350101251	0.011241950544138679	-0.02533620669130163	0.41822186857655397	-0.013123072587343595	-0.08972241490313056	0.36454257771661436	-0.039477549017219414	-0.10978445396552586	0.3484186575507175	-0.03332606989857368	-0.14847470307831542	0.37714046060695433
102	1.7	0.31386519803166385	0.4769295245762722	0.9161777878215615	0.30974483341390724	0.6357755892808119	1.387494180660973	0.32053911090270776	0.781120610767988	1.8080716906708958	0.2697317065803733	0.5922082413315168	1.8479138624428724	0.3274997721844103	0.6153780139754569	1.8424664491941176	0.29486999858672447	0.9117858560646797	1.89231854263608	0.07949995185442622	0.5048605734195307	0.9270042632349792	0.08460756707278382	0.6132758597851276	1.3805357527972384	0.09410147462212319	0.7867182892612725	1.7985849809573404	0.116167364823241	0.6151632547401319	1.849879311927179	0.05820013692217595	0.637493822668363	1.8319868397004104	0.10238625699295695	0.8965759935240125	1.8456095961883452	0.2126023040539482	0.3844715580809991	0.3134391226288735	0.23243056161168912	0.3463739950114292	0.07486620749024782	0.2151936703716063	0.305311504373152	0.19011120353827002	0.3558940979517972	0.40026386607438014	0.39175537924905024	0.5000306726919511	0.2337074774470399	0.4556636802432098	0.42014456810457074	0.14871562408181244	0.2524780873054397	0.31806220449447575	0.17089534827594877	0.17276933482422857	0.3172777919100896	0.14967710113759708	0.15801995352687187	0.3522163192525499	0.16361344848353532	0.16594959693790115	0.05797054252807574	0.4176708318178143	0.3906935949116284	0.030007411498032075	0.15592951460391619	0.5228583934445733	0.022267732289266474	-0.03719693001865083	0.38797436034184496	0.006494993386322316	-0.11189610762058648	0.3243984080741499	-0.046807358445248	-0.08284051123532728	0.3108260424666948	-0.014021555202439145	-0.16841497410672965	0.33417703241936975
103	1.7166666666666666	0.3099191365175424	0.49290685617303476	0.9253323748733652	0.3054212626622678	0.6334525394987621	1.387123376859665	0.32047300025071	0.7811732050384128	1.8078624459503743	0.2722978517350974	0.6060343904079784	1.8527597581920079	0.3275285091303353	0.6159571082978949	1.8426693791040705	0.29494800815777267	0.9125121370159204	1.8925129688156896	0.07747715816626545	0.4917812498089785	0.9260973057470686	0.08456848764374558	0.613031183932315	1.3806884793993257	0.10001252375009921	0.770414658022359	1.7925061770573365	0.11610237786249156	0.6159417789209981	1.8500322925439106	0.05820373721937516	0.6373205605097955	1.8316833389844411	0.10251250420352902	0.8959132117949818	1.8451872678105647	0.21302248803568555	0.38548161618987314	0.31651049974759293	0.23955058419275863	0.35764141444977765	0.06875042461274149	0.22443271465738296	0.2932341444974847	0.18803251842860988	0.3595261176381583	0.413720605691658	0.39722719217759045	0.49990839950368626	0.2206615347207927	0.4635211728670731	0.4319034069380134	0.16297327312201138	0.2633900789920792	0.3311910316093841	0.17080368514894492	0.18452312548593183	0.33469498945537707	0.16177099556139765	0.15914660040689244	0.3822966743659072	0.15298393566256935	0.17035521176004953	0.05816489890283616	0.4176486628143337	0.39044525508724126	0.029006755397079833	0.1625844587788774	0.49908457817778035	0.024893933109905245	-0.029209534981311073	0.36416963341606173	0.02516377862973405	-0.13148077113980325	0.2999974376864978	0.013241692507914312	-0.1428047842686501	0.29622608128583794	0.002336538465289844	-0.16105748033409842	0.3053895919720543
